<?xml version="1.0" standalone="no"?><!DOCTYPE svg PUBLIC "-//W3C//DTD SVG 1.1//EN" "http://www.w3.org/Graphics/SVG/1.1/DTD/svg11.dtd"><svg t="1538661559889" class="icon" style="" viewBox="0 0 1024 1024" version="1.1" xmlns="http://www.w3.org/2000/svg" p-id="3986" data-spm-anchor-id="a313x.7781069.0.i7" xmlns:xlink="http://www.w3.org/1999/xlink" width="128" height="128"><defs><style type="text/css"></style></defs><path d="M996.845855 539.849737 526.14798 71.803182C509.195274 54.949283 487.144863 46.781244 464.873051 44.914891c-12.350865-1.030154-205.948389-41.132955-205.948389-41.132955C208.721597-6.175606 153.150023 0.078506 87.765458 65.098949l-8.777348 8.727945c-75.799547 75.369553-84.926378 132.492762-76.350304 182.683019 0 0 36.174312 201.295315 36.917193 214.131066 1.236916 21.320338 10.565022 42.119195 26.853525 58.308892L537.09908 997.003744c36.209077 35.994995 95.454805 35.994995 131.649244 0L996.838535 670.74878C1033.049442 634.751955 1033.049442 575.844732 996.845855 539.849737L996.845855 539.849737zM807.281117 670.305979l-138.982913 138.186968c-36.201758 36.004144-95.440167 36.004144-131.634606 0L316.119231 589.211113c-36.201758-36.002314-36.201758-94.904048 0-130.899043l138.982913-138.203436c36.201758-35.994995 95.440167-35.994995 131.649244 0L807.281117 539.399617C843.490194 575.401931 843.482875 634.303664 807.281117 670.305979L807.281117 670.305979zM309.043558 226.661073c0 41.47695-33.813924 75.106068-75.526913 75.106068s-75.526913-33.6218-75.526913-75.106068c0-41.47695 33.813924-75.098749 75.526913-75.098749S309.043558 185.184124 309.043558 226.661073L309.043558 226.661073zM309.043558 226.661073" p-id="3987" fill="#ffffff"></path></svg>