<?xml version="1.0" standalone="no"?><!DOCTYPE svg PUBLIC "-//W3C//DTD SVG 1.1//EN" "http://www.w3.org/Graphics/SVG/1.1/DTD/svg11.dtd"><svg t="1537938809539" class="icon" style="" viewBox="0 0 1024 1024" version="1.1" xmlns="http://www.w3.org/2000/svg" p-id="1552" xmlns:xlink="http://www.w3.org/1999/xlink" width="128" height="128"><defs><style type="text/css"></style></defs><path d="M761.6 662.4s0.96 5.76 1.92 15.68c4.48 53.12 6.08 224.96-158.72 262.72l-315.2 11.52S249.6 924.8 249.6 880v-264s22.4-19.2 64-19.2h467.2V640l-19.2 22.4zM542.4 384.96S490.56 153.6 128 176c0 0 88 240 252.16 300.8 0 0 118.4 36.16 127.68 35.2l38.08-35.2 17.28-97.92-20.8 6.08z" fill="#B5EAC2" p-id="1553"></path><path d="M723.2 968H307.2c-38.72 0-70.4-31.68-70.4-70.4v-281.6c0-17.6 14.4-32 32-32h492.8c17.6 0 32 14.4 32 32v281.6c0 38.72-31.68 70.4-70.4 70.4z m-454.4-358.4c-3.52 0-6.4 2.88-6.4 6.4v281.6c0 24.64 20.16 44.8 44.8 44.8h416c24.64 0 44.8-20.16 44.8-44.8v-281.6c0-3.52-2.88-6.4-6.4-6.4H268.8z" fill="#573733" p-id="1554"></path><path d="M515.2 476.8s358.4 115.2 377.6-304c0 0-277.12-77.76-373.76 190.08" fill="#B5EAC2" p-id="1555"></path><path d="M524.8 597.12l-25.6-0.64 3.52-136.32 15.68 4.48c1.6 0.32 156.16 42.56 261.44-36.48 63.68-47.68 96.96-130.24 99.84-245.12-31.04-7.04-133.44-24.96-223.04 24-63.36 34.56-107.84 95.68-132.48 181.44l-15.04 52.16L499.2 387.2c0-0.64-12.16-63.04-63.68-118.08C368.96 197.12 269.44 169.6 140.16 187.2c-0.64 21.76 0.96 75.84 22.08 132.8 36.16 97.6 110.4 157.76 220.8 179.52l-4.8 25.28c-149.76-29.12-213.44-122.88-240.32-196.48-29.12-79.36-23.04-150.4-22.72-153.6l0.96-9.92 9.92-1.6c179.2-27.2 278.08 33.28 329.28 89.28 29.44 32 47.04 65.6 56.96 90.88 28.16-72.96 72.64-126.4 132.48-159.04 115.84-63.36 246.08-25.28 251.52-23.68l9.28 2.56v9.6c-0.96 128.64-38.08 221.44-110.4 275.52-96 72-223.36 53.76-267.84 44.48l-2.56 104.32z" fill="#573733" p-id="1556"></path></svg>