<?xml version="1.0" standalone="no"?><!DOCTYPE svg PUBLIC "-//W3C//DTD SVG 1.1//EN" "http://www.w3.org/Graphics/SVG/1.1/DTD/svg11.dtd"><svg t="1538625950701" class="icon" style="" viewBox="0 0 1024 1024" version="1.1" xmlns="http://www.w3.org/2000/svg" p-id="2542" data-spm-anchor-id="a313x.7781069.0.i1" xmlns:xlink="http://www.w3.org/1999/xlink" width="128" height="128"><defs><style type="text/css"></style></defs><path d="M555.264 240.64a25.2416 25.2416 0 0 0-20.224 25.1904v553.4208c0 1.4336 0.1024 2.8672 0.3584 4.3008 2.2528 13.9264 14.848 23.296 28.0576 20.9408l340.48-61.0816a25.2416 25.2416 0 0 0 20.224-25.2416V204.7488a26.9312 26.9312 0 0 0-0.3584-4.3008 24.4736 24.4736 0 0 0-28.0576-20.9408L555.264 240.64z m-8.192-50.5344l340.48-61.0816c39.7312-7.1168 77.4656 20.992 84.224 62.8224 0.6656 4.2496 1.024 8.6016 1.024 12.9024v553.4208c0 37.4272-25.6 69.4272-60.7232 75.7248l-340.48 61.0816c-39.68 7.1168-77.4144-20.992-84.1728-62.8224A80.7424 80.7424 0 0 1 486.4 819.2V265.8304c0-37.4272 25.6-69.4272 60.7232-75.7248z" p-id="2543" fill="#ffffff"></path><path d="M468.736 240.64c11.6736 2.048 20.224 12.6976 20.224 25.1904v553.4208a26.9312 26.9312 0 0 1-0.3584 4.3008 24.4736 24.4736 0 0 1-28.0576 20.9408L120.064 783.36a25.2416 25.2416 0 0 1-20.224-25.2416V204.7488c0-1.4336 0.1024-2.8672 0.3584-4.3008a24.4736 24.4736 0 0 1 28.0576-20.9408L468.736 240.64z m8.192-50.5344L136.3968 129.024c-39.7312-7.1168-77.4656 20.992-84.224 62.8224C51.5584 196.096 51.2 200.448 51.2 204.8v553.4208c0 37.4272 25.6 69.4272 60.7232 75.7248l340.48 61.0816c39.68 7.1168 77.4144-20.992 84.1728-62.8224 0.6656-4.2496 1.024-8.6016 1.024-12.9024V265.8304c0-37.4272-25.6-69.4272-60.7232-75.7248z" p-id="2544" fill="#ffffff"></path><path d="M199.0144 357.7344a25.6 25.6 0 1 1 11.5712-49.8688l183.6544 42.752a25.6 25.6 0 1 1-11.5712 49.8688l-183.6544-42.752zM199.0144 511.3344a25.6 25.6 0 1 1 11.5712-49.8688l183.6544 42.752a25.6 25.6 0 1 1-11.5712 49.8688l-183.6544-42.752zM199.0144 664.9344a25.6 25.6 0 1 1 11.5712-49.8688l183.6544 42.752a25.6 25.6 0 0 1-11.5712 49.8688l-183.6544-42.752zM634.2144 350.6176a25.6 25.6 0 1 0 11.5712 49.8688l183.6544-42.752a25.6 25.6 0 0 0-11.5712-49.8688l-183.6544 42.752zM634.2144 504.2176a25.6 25.6 0 1 0 11.5712 49.8688l183.6544-42.752a25.6 25.6 0 0 0-11.5712-49.8688l-183.6544 42.752zM634.2144 657.8176a25.6 25.6 0 1 0 11.5712 49.8688l183.6544-42.752a25.6 25.6 0 0 0-11.5712-49.8688l-183.6544 42.752z" p-id="2545" fill="#ffffff"></path></svg>