<?xml version="1.0" standalone="no"?><!DOCTYPE svg PUBLIC "-//W3C//DTD SVG 1.1//EN" "http://www.w3.org/Graphics/SVG/1.1/DTD/svg11.dtd"><svg t="1538697002378" class="icon" style="" viewBox="0 0 1024 1024" version="1.1" xmlns="http://www.w3.org/2000/svg" p-id="3400" data-spm-anchor-id="a313x.7781069.0.i1" xmlns:xlink="http://www.w3.org/1999/xlink" width="128" height="128"><defs><style type="text/css"></style></defs><path d="M221.581608 668.864654c-10.172687 0-18.419512 8.246825-18.419512 18.419512s8.246825 18.419512 18.419512 18.419512l231.712339 0c10.172687 0 18.419512-8.246825 18.419512-18.419512L471.713458 322.807057c0-10.172687-8.246825-18.419512-18.419512-18.419512L221.581608 304.387545c-10.172687 0-18.419512 8.246825-18.419512 18.419512 0 10.172687 8.246825 18.419512 18.419512 18.419512l213.292827 0L434.874435 485.541395 221.581608 485.541395c-10.172687 0-18.419512 8.246825-18.419512 18.419512s8.246825 18.419512 18.419512 18.419512l213.292827 0 0 146.484236L221.581608 668.864654z" p-id="3401" fill="#ffffff"></path><path d="M840.480266 687.284165 840.480266 322.807057c0-10.172687-8.246825-18.419512-18.419512-18.419512L590.348416 304.387545c-10.172687 0-18.419512 8.246825-18.419512 18.419512l0 364.477109c0 10.172687 8.246825 18.419512 18.419512 18.419512l231.712339 0C832.233442 705.703677 840.480266 697.457876 840.480266 687.284165zM803.641243 668.864654 608.767927 668.864654 608.767927 341.226568l194.873316 0L803.641243 668.864654z" p-id="3402" fill="#ffffff"></path><path d="M876.645954 77.474512 760.315482 77.474512 760.315482 56.44557c0-10.172687-8.246825-18.419512-18.419512-18.419512s-18.419512 8.246825-18.419512 18.419512l0 21.027919L320.165904 77.473489 320.165904 56.44557c0-10.172687-8.246825-18.419512-18.419512-18.419512s-18.419512 8.246825-18.419512 18.419512l0 21.027919L166.996408 77.473489c-62.766532 0-113.831558 51.064003-113.831558 113.831558l0 588.351945c0 62.766532 51.064003 113.830535 113.831558 113.830535l486.643496 0c0.189312 0 0.3776-0.00307 0.565888-0.00921 0.164752 0.002047 16.619516-0.369414 37.182854 4.010337 33.767058 7.193843 52.414767 21.364587 62.111616 31.985482 3.634784 3.980661 8.612145 5.999644 13.607926 5.999644 4.433986 0 8.882298-1.592264 12.414751-4.816702 7.513114-6.859221 8.042163-18.510586 1.182942-26.022677-44.574195-48.817846-120.877021-48.140417-127.304408-47.986921L166.996408 856.647481c-42.453904 0-76.992535-34.538631-76.992535-76.991512L90.003873 191.305047c0-42.453904 34.538631-76.992535 76.992535-76.992535L283.32688 114.312512l0 26.830065c0 10.172687 8.246825 18.419512 18.419512 18.419512s18.419512-8.246825 18.419512-18.419512L320.165904 114.313535l403.310555 0 0 26.830065c0 10.172687 8.246825 18.419512 18.419512 18.419512s18.419512-8.246825 18.419512-18.419512L760.315482 114.313535l116.330472 0c42.452881 0 76.991512 34.538631 76.991512 76.992535l0 588.351945c0 42.452881-34.538631 76.991512-76.991512 76.991512l-38.389332 0c-10.172687 0-18.419512 8.246825-18.419512 18.419512s8.246825 18.419512 18.419512 18.419512l38.389332 0c62.766532 0 113.830535-51.064003 113.830535-113.830535L990.476489 191.305047C990.476489 128.538515 939.412486 77.474512 876.645954 77.474512z" p-id="3403" fill="#ffffff"></path></svg>