<?xml version="1.0" standalone="no"?><!DOCTYPE svg PUBLIC "-//W3C//DTD SVG 1.1//EN" "http://www.w3.org/Graphics/SVG/1.1/DTD/svg11.dtd"><svg t="1538696586441" class="icon" style="" viewBox="0 0 1024 1024" version="1.1" xmlns="http://www.w3.org/2000/svg" p-id="852" xmlns:xlink="http://www.w3.org/1999/xlink" width="128" height="128"><defs><style type="text/css"></style></defs><path d="M430.4 366.4s245.12 27.2 335.36 145.6l13.44 57.28 1.6 305.92S713.6 947.2 660.8 947.2l-351.04-5.12s-55.36-26.88-64.96-124.48l11.52-294.72s74.88-131.52 159.04-165.76l15.04 9.28zM577.92 337.6h-121.6c-28.16 0-51.2-23.04-51.2-51.2V252.8c0-28.16 23.04-51.2 51.2-51.2h121.6c28.16 0 51.2 23.04 51.2 51.2v33.6c0 28.16-23.04 51.2-51.2 51.2z" fill="#C9D7F7" p-id="853"></path><path d="M577.92 350.4h-121.6c-35.2 0-64-28.8-64-64V252.8c0-35.2 28.8-64 64-64h121.6c35.2 0 64 28.8 64 64v33.6c0 35.2-28.48 64-64 64z m-121.6-136c-21.12 0-38.4 17.28-38.4 38.4v33.6c0 21.12 17.28 38.4 38.4 38.4h121.6c21.12 0 38.4-17.28 38.4-38.4V252.8c0-21.12-17.28-38.4-38.4-38.4h-121.6z" fill="#573733" p-id="854"></path><path d="M684.8 960H340.8c-59.84 0-108.8-48.96-108.8-108.8v-252.8c0-148.16 120.64-268.8 268.8-268.8h24c148.16 0 268.8 120.64 268.8 268.8v252.8c0 59.84-48.96 108.8-108.8 108.8z m-184-604.8c-134.08 0-243.2 109.12-243.2 243.2v252.8c0 45.76 37.44 83.2 83.2 83.2H684.8c45.76 0 83.2-37.44 83.2-83.2v-252.8c0-134.08-109.12-243.2-243.2-243.2h-24zM504.32 124.8h25.6v76.8h-25.6z" fill="#573733" p-id="855"></path><path d="M366.4 188.8c-2.24 0-4.48-0.64-6.4-1.6-6.08-3.52-8.32-11.2-4.8-17.6 3.52-5.76 33.92-57.28 68.16-68.16 1.28-0.32 2.56-0.64 3.84-0.64H579.2c7.04 0 12.8 5.76 12.8 12.8s-5.76 12.8-12.8 12.8h-149.76c-20.48 8-44.8 43.84-51.84 56-2.56 4.16-6.72 6.4-11.2 6.4zM380.8 606.4H304c-7.04 0-12.8-5.76-12.8-12.8s5.76-12.8 12.8-12.8h76.8c7.04 0 12.8 5.76 12.8 12.8s-5.76 12.8-12.8 12.8zM380.8 760H304c-7.04 0-12.8-5.76-12.8-12.8s5.76-12.8 12.8-12.8h76.8c7.04 0 12.8 5.76 12.8 12.8s-5.76 12.8-12.8 12.8z" fill="#573733" p-id="856"></path><path d="M444.8 683.2H304c-7.04 0-12.8-5.76-12.8-12.8s5.76-12.8 12.8-12.8h140.8c7.04 0 12.8 5.76 12.8 12.8s-5.76 12.8-12.8 12.8z" fill="#573733" p-id="857"></path></svg>