<?xml version="1.0" standalone="no"?><!DOCTYPE svg PUBLIC "-//W3C//DTD SVG 1.1//EN" "http://www.w3.org/Graphics/SVG/1.1/DTD/svg11.dtd"><svg t="1544606956553" class="icon" style="" viewBox="0 0 1024 1024" version="1.1" xmlns="http://www.w3.org/2000/svg" p-id="874" xmlns:xlink="http://www.w3.org/1999/xlink" width="128" height="128"><defs><style type="text/css"></style></defs><path d="M67.2 627.2s36.8-161.6 486.4-198.4l273.6-8s131.2 64 134.4 192v124.8h-896L67.2 627.2z" fill="#BCE7F7" p-id="875"></path><path d="M976 752H54.4v-144c0-109.44 88.96-198.4 198.4-198.4h524.8c109.44 0 198.4 88.96 198.4 198.4v144z m-896-25.6h870.4v-118.4c0-95.36-77.44-172.8-172.8-172.8H252.8c-95.36 0-172.8 77.44-172.8 172.8v118.4z" fill="#573733" p-id="876"></path><path d="M208 422.4s139.2-169.6 296.96-166.4c0 0 144.96-51.2 269.76 83.2l47.36 59.52 7.04 23.68H208z" fill="#BCE7F7" p-id="877"></path><path d="M844.8 435.2H190.4l3.52-15.68C224 291.52 360 198.4 517.76 198.4s293.44 93.12 323.52 221.12l3.52 15.68z m-621.44-25.6h588.48c-34.56-108.48-155.2-185.6-294.4-185.6s-259.52 77.12-294.08 185.6z" fill="#573733" p-id="878"></path><path d="M517.76 428.8c-7.04 0-12.8-5.76-12.8-12.8V217.6c0-7.04 5.76-12.8 12.8-12.8s12.8 5.76 12.8 12.8v198.4c0 7.04-6.08 12.8-12.8 12.8z" fill="#573733" p-id="879"></path><path d="M517.76 430.4c-8 0-14.4-6.4-14.4-14.4V217.6c0-8 6.4-14.4 14.4-14.4s14.4 6.4 14.4 14.4v198.4c0 8-6.72 14.4-14.4 14.4z m0-224c-6.08 0-11.2 5.12-11.2 11.2v198.4c0 6.08 5.12 11.2 11.2 11.2s11.2-5.12 11.2-11.2V217.6c0-6.08-5.12-11.2-11.2-11.2z" fill="#573733" p-id="880"></path><path d="M281.6 729.6m-115.2 0a115.2 115.2 0 1 0 230.4 0 115.2 115.2 0 1 0-230.4 0Z" fill="#FFFFFF" p-id="881"></path><path d="M233.6 636.8s112-9.6 150.4 92.8c0 0-3.2 70.4-60.8 92.8 0 0-86.4 41.6-137.6-54.4 0 0-32-76.8 48-131.2z" fill="#BCE7F7" p-id="882"></path><path d="M281.6 857.6c-70.72 0-128-57.28-128-128s57.28-128 128-128 128 57.28 128 128-57.28 128-128 128z m0-230.4c-56.32 0-102.4 46.08-102.4 102.4s46.08 102.4 102.4 102.4 102.4-46.08 102.4-102.4-46.08-102.4-102.4-102.4z" fill="#573733" p-id="883"></path><path d="M739.2 729.6m-115.2 0a115.2 115.2 0 1 0 230.4 0 115.2 115.2 0 1 0-230.4 0Z" fill="#FFFFFF" p-id="884"></path><path d="M691.2 636.8s112-9.6 150.4 92.8c0 0-3.2 70.4-60.8 92.8 0 0-86.4 41.6-137.6-54.4 0 0-32-76.8 48-131.2z" fill="#BCE7F7" p-id="885"></path><path d="M739.2 857.6c-70.72 0-128-57.28-128-128s57.28-128 128-128 128 57.28 128 128-57.28 128-128 128z m0-230.4c-56.32 0-102.4 46.08-102.4 102.4s46.08 102.4 102.4 102.4 102.4-46.08 102.4-102.4-46.08-102.4-102.4-102.4z" fill="#573733" p-id="886"></path></svg>