<?xml version="1.0" standalone="no"?><!DOCTYPE svg PUBLIC "-//W3C//DTD SVG 1.1//EN" "http://www.w3.org/Graphics/SVG/1.1/DTD/svg11.dtd"><svg t="1537938790433" class="icon" style="" viewBox="0 0 1024 1024" version="1.1" xmlns="http://www.w3.org/2000/svg" p-id="1294" xmlns:xlink="http://www.w3.org/1999/xlink" width="128" height="128"><defs><style type="text/css"></style></defs><path d="M557.76 108.8s370.56 220.8 367.36 483.2c0 0-14.08 375.68-412.8 332.8 0 0-141.44-40-221.12-52.16l-177.6 8.96s42.56-99.84 46.08-198.08c0 0-159.36-270.08 133.44-509.12-0.32 0.32 153.28-107.2 264.64-65.6z" fill="#BFDCE8" p-id="1295"></path><path d="M536 937.6c-67.52 0-131.84-15.36-191.68-45.44-24.96-12.48-154.24-5.44-229.44 2.24l-22.08 2.24 8.96-20.16c25.28-56.32 60.16-157.12 46.08-187.52C121.92 632.96 108.8 572.8 108.8 510.4 108.8 274.88 300.48 83.2 536 83.2S963.2 274.88 963.2 510.4 771.52 937.6 536 937.6z m-263.36-77.76c36.48 0 68.8 2.24 82.88 9.6 56.32 28.16 116.8 42.56 180.16 42.56 221.44 0 401.6-180.16 401.6-401.6C937.6 288.96 757.44 108.8 536 108.8S134.4 288.96 134.4 510.4c0 58.56 12.48 115.2 36.8 168 19.2 41.28-18.88 144-37.44 188.48 31.36-2.56 89.28-7.04 138.88-7.04z" fill="#512625" p-id="1296"></path><path d="M408 491.2c-47.68 0-86.4-38.72-86.4-86.4s38.72-86.4 86.4-86.4 86.4 38.72 86.4 86.4-38.72 86.4-86.4 86.4z m0-145.28c-32.32 0-58.88 26.24-58.88 58.88s26.24 58.88 58.88 58.88 58.88-26.24 58.88-58.88-26.56-58.88-58.88-58.88zM682.56 491.2c-47.68 0-86.4-38.72-86.4-86.4s38.72-86.4 86.4-86.4 86.4 38.72 86.4 86.4-38.72 86.4-86.4 86.4z m0-145.28c-32.32 0-58.88 26.24-58.88 58.88s26.24 58.88 58.88 58.88 58.88-26.24 58.88-58.88-26.56-58.88-58.88-58.88z" fill="#512625" p-id="1297"></path><path d="M558.08 758.4h-6.08c-130.88-4.48-218.56-153.6-222.4-160-3.52-6.08-1.6-14.08 4.8-17.6 6.08-3.52 14.08-1.6 17.6 4.8 0.96 1.92 84.48 143.04 201.28 147.2 71.68 2.56 142.72-47.36 210.88-147.84 3.84-5.76 11.84-7.36 17.92-3.52 5.76 3.84 7.36 11.84 3.52 17.92-72 105.6-148.16 159.04-227.52 159.04z" fill="#512625" p-id="1298"></path></svg>