<?xml version="1.0" standalone="no"?><!DOCTYPE svg PUBLIC "-//W3C//DTD SVG 1.1//EN" "http://www.w3.org/Graphics/SVG/1.1/DTD/svg11.dtd"><svg t="1540001373290" class="icon" style="" viewBox="0 0 1024 1024" version="1.1" xmlns="http://www.w3.org/2000/svg" p-id="2124" xmlns:xlink="http://www.w3.org/1999/xlink" width="128" height="128"><defs><style type="text/css"></style></defs><path d="M153.6 512s-9.6 300.8 313.6 400c0 0 307.2 41.6 428.8-278.4 0 0 25.6-67.2 16-134.4H153.6v12.8z" fill="#C7FCBE" p-id="2125"></path><path d="M502.4 944c-245.12 0-444.8-199.68-444.8-444.8v-9.92l0.32-12.48h888.96l0.32 12.48v9.92c0 245.12-199.68 444.8-444.8 444.8zM83.2 502.4c1.6 229.76 189.12 416 419.2 416s417.6-186.24 419.2-416H83.2z" fill="#573733" p-id="2126"></path><path d="M153.6 396.8s83.2-76.8 150.4-32c0 0 150.4-102.4 265.6-83.2 0 0 41.6 3.2 73.6 38.4l35.2 76.8H153.6z" fill="#C7FCBE" p-id="2127"></path><path d="M713.92 422.4H92.48l3.84-16c3.52-14.08 9.92-23.36 18.56-27.52 1.6-0.64 3.2-1.28 4.8-1.6C137.6 339.52 163.2 315.52 195.52 305.6c46.72-14.08 93.76 5.76 114.24 16.64 80.64-107.52 168-100.16 180.48-98.56 70.4-0.96 131.2 30.08 174.72 90.56 32.64 45.12 44.48 89.92 44.8 91.84l4.16 16.32z m-574.72-25.6h540.8c-6.08-16-17.28-42.24-36.16-67.84C604.8 274.88 552.64 248.32 489.92 249.6h-1.28l-1.28-0.32c-3.52-0.64-86.4-12.48-163.2 97.28l-7.04 10.24-10.24-6.72c-0.64-0.32-54.4-34.56-103.68-19.52-26.88 8.32-48.32 30.08-63.04 64.96l-0.96 1.28z" fill="#573733" p-id="2128"></path><path d="M893.44 103.04l-198.4 298.24c-3.84 5.76-2.24 13.76 3.52 17.6 5.76 3.84 13.76 2.24 17.6-3.52l198.4-298.24c3.84-5.76 2.24-13.76-3.52-17.6-5.76-4.16-13.76-2.56-17.6 3.52zM933.76 240.32l-118.72 178.56c-4.48 6.72-13.44 8.32-19.84 4.16-6.72-4.48-8.32-13.44-4.16-19.84l118.72-178.56c4.48-6.72 13.44-8.32 19.84-4.16 6.72 4.16 8.64 13.12 4.16 19.84z" fill="#573733" p-id="2129"></path></svg>