<?xml version="1.0" standalone="no"?><!DOCTYPE svg PUBLIC "-//W3C//DTD SVG 1.1//EN" "http://www.w3.org/Graphics/SVG/1.1/DTD/svg11.dtd"><svg t="1538626359584" class="icon" style="" viewBox="0 0 1063 1024" version="1.1" xmlns="http://www.w3.org/2000/svg" p-id="8519" data-spm-anchor-id="a313x.7781069.0.i8" xmlns:xlink="http://www.w3.org/1999/xlink" width="132.875" height="128"><defs><style type="text/css"></style></defs><path d="M1002.164855 967.623605l-163.981963 36.070435a55.96654 55.96654 0 0 1-66.65615-42.646503L615.631944 251.923487V959.732323a55.96654 55.96654 0 0 1-55.96654 55.96654h-167.899622a55.96654 55.96654 0 0 1-55.96654-55.96654V64.267677a55.96654 55.96654 0 0 1 55.96654-55.96654h167.899622a55.96654 55.96654 0 0 1 55.96654 55.96654v161.519436a55.826624 55.826624 0 0 1 42.310704-42.030872l163.981964-36.042452a55.96654 55.96654 0 0 1 66.684132 42.646504L1044.811359 900.967455a55.938557 55.938557 0 0 1-42.646504 66.65615zM559.665404 64.267677h-167.899622v895.464646h167.899622V64.267677z m274.292014 138.125422l-163.981963 36.014468 156.202614 710.607163 163.981963-36.042452-156.202614-710.579179z m-97.297831 78.688956l54.651327-12.004823 12.004823 54.651326-54.651327 12.004823-12.004823-54.651326zM503.698863 176.200758h-55.96654V120.234218h55.96654v55.96654zM223.866161 1015.698863H55.96654a55.96654 55.96654 0 0 1-55.96654-55.96654V232.167298a55.96654 55.96654 0 0 1 55.96654-55.96654h167.899621a55.96654 55.96654 0 0 1 55.966541 55.96654v727.565025a55.96654 55.96654 0 0 1-55.966541 55.96654zM223.866161 232.167298H55.96654v727.565025h167.899621V232.167298z m-55.96654 111.933081H111.933081v-55.96654h55.96654v55.96654z" fill="#ffffff" p-id="8520"></path></svg>