<?xml version="1.0" standalone="no"?><!DOCTYPE svg PUBLIC "-//W3C//DTD SVG 1.1//EN" "http://www.w3.org/Graphics/SVG/1.1/DTD/svg11.dtd"><svg t="1538696671594" class="icon" style="" viewBox="0 0 1024 1024" version="1.1" xmlns="http://www.w3.org/2000/svg" p-id="982" xmlns:xlink="http://www.w3.org/1999/xlink" width="128" height="128"><defs><style type="text/css"></style></defs><path d="M803.2 928H211.2c-42.24 0-76.8-34.56-76.8-76.8V454.4c0-42.24 34.56-76.8 76.8-76.8h592c42.24 0 76.8 34.56 76.8 76.8v396.8c0 42.24-34.56 76.8-76.8 76.8z" fill="#BFE5BE" p-id="983"></path><path d="M803.2 940.8H211.2c-49.28 0-89.6-40.32-89.6-89.6V454.4c0-49.28 40.32-89.6 89.6-89.6h592c49.28 0 89.6 40.32 89.6 89.6v396.8c0 49.28-40.32 89.6-89.6 89.6zM211.2 390.4c-35.2 0-64 28.8-64 64v396.8c0 35.2 28.8 64 64 64h592c35.2 0 64-28.8 64-64V454.4c0-35.2-28.8-64-64-64H211.2z" fill="#512625" p-id="984"></path><path d="M667.2 390.4h-320c-7.04 0-12.8-5.76-12.8-12.8V217.6c0-63.68 51.52-115.2 115.2-115.2h115.2c63.68 0 115.2 51.52 115.2 115.2 0 7.04-5.76 12.8-12.8 12.8s-12.8-5.76-12.8-12.8c0-49.28-40.32-89.6-89.6-89.6h-115.2c-49.28 0-89.6 40.32-89.6 89.6v147.2h307.2c7.04 0 12.8 5.76 12.8 12.8s-5.76 12.8-12.8 12.8z" fill="#512625" p-id="985"></path><path d="M513.6 592m-76.8 0a76.8 76.8 0 1 0 153.6 0 76.8 76.8 0 1 0-153.6 0Z" fill="#FCFCFC" p-id="986"></path><path d="M513.6 681.6c-49.28 0-89.6-40.32-89.6-89.6s40.32-89.6 89.6-89.6 89.6 40.32 89.6 89.6-40.32 89.6-89.6 89.6z m0-153.6c-35.2 0-64 28.8-64 64s28.8 64 64 64 64-28.8 64-64-28.8-64-64-64z" fill="#512625" p-id="987"></path><path d="M512 816c-10.56 0-19.2-8.64-19.2-19.2v-121.6c0-10.56 8.64-19.2 19.2-19.2s19.2 8.64 19.2 19.2v121.6c0 10.56-8.64 19.2-19.2 19.2z" fill="#512625" p-id="988"></path><path d="M633.6 390.4h170.56s64 0 59.84 72.64l0.32 183.36s25.28-219.84-230.72-256z" fill="#FFFFFF" p-id="989"></path></svg>