<?xml version="1.0" standalone="no"?><!DOCTYPE svg PUBLIC "-//W3C//DTD SVG 1.1//EN" "http://www.w3.org/Graphics/SVG/1.1/DTD/svg11.dtd"><svg t="1538719702571" class="icon" style="" viewBox="0 0 1024 1024" version="1.1" xmlns="http://www.w3.org/2000/svg" p-id="852" xmlns:xlink="http://www.w3.org/1999/xlink" width="64" height="64"><defs><style type="text/css"></style></defs><path d="M523.52 804.48m-129.6 0a129.6 129.6 0 1 0 259.2 0 129.6 129.6 0 1 0-259.2 0Z" fill="#F7DEDC" p-id="853"></path><path d="M523.52 946.88c-78.4 0-142.4-64-142.4-142.4s64-142.4 142.4-142.4 142.4 64 142.4 142.4-63.68 142.4-142.4 142.4z m0-259.2c-64.32 0-116.8 52.48-116.8 116.8s52.48 116.8 116.8 116.8 116.8-52.48 116.8-116.8-52.48-116.8-116.8-116.8z" fill="#573733" p-id="854"></path><path d="M393.92 641.28m-129.6 0a129.6 129.6 0 1 0 259.2 0 129.6 129.6 0 1 0-259.2 0Z" fill="#F7DEDC" p-id="855"></path><path d="M393.92 783.68c-78.4 0-142.4-64-142.4-142.4s64-142.4 142.4-142.4 142.4 64 142.4 142.4-63.68 142.4-142.4 142.4z m0-259.2c-64.32 0-116.8 52.48-116.8 116.8s52.48 116.8 116.8 116.8 116.8-52.48 116.8-116.8-52.48-116.8-116.8-116.8z" fill="#573733" p-id="856"></path><path d="M641.6 641.28m-129.6 0a129.6 129.6 0 1 0 259.2 0 129.6 129.6 0 1 0-259.2 0Z" fill="#F7DEDC" p-id="857"></path><path d="M641.6 783.68c-78.4 0-142.4-64-142.4-142.4s64-142.4 142.4-142.4 142.4 64 142.4 142.4-64 142.4-142.4 142.4z m0-259.2c-64.32 0-116.8 52.48-116.8 116.8s52.48 116.8 116.8 116.8 116.8-52.48 116.8-116.8-52.48-116.8-116.8-116.8z" fill="#573733" p-id="858"></path><path d="M735.68 412.48m-129.6 0a129.6 129.6 0 1 0 259.2 0 129.6 129.6 0 1 0-259.2 0Z" fill="#F7DEDC" p-id="859"></path><path d="M735.68 554.88c-78.4 0-142.4-64-142.4-142.4s64-142.4 142.4-142.4 142.4 64 142.4 142.4-64 142.4-142.4 142.4z m0-259.2c-64.32 0-116.8 52.48-116.8 116.8s52.48 116.8 116.8 116.8 116.8-52.48 116.8-116.8-52.48-116.8-116.8-116.8z" fill="#573733" p-id="860"></path><path d="M356.8 446.4m-129.6 0a129.6 129.6 0 1 0 259.2 0 129.6 129.6 0 1 0-259.2 0Z" fill="#F7DEDC" p-id="861"></path><path d="M356.8 588.8C278.4 588.8 214.4 524.8 214.4 446.4S278.4 304 356.8 304s142.4 64 142.4 142.4-64 142.4-142.4 142.4z m0-259.2C292.48 329.6 240 382.08 240 446.4S292.48 563.2 356.8 563.2s116.8-52.48 116.8-116.8-52.48-116.8-116.8-116.8z" fill="#573733" p-id="862"></path><path d="M559.68 428.48m-129.6 0a129.6 129.6 0 1 0 259.2 0 129.6 129.6 0 1 0-259.2 0Z" fill="#F7DEDC" p-id="863"></path><path d="M559.68 570.88c-78.4 0-142.4-64-142.4-142.4s64-142.4 142.4-142.4 142.4 64 142.4 142.4-64 142.4-142.4 142.4z m0-259.2c-64.32 0-116.8 52.48-116.8 116.8s52.48 116.8 116.8 116.8 116.8-52.48 116.8-116.8-52.48-116.8-116.8-116.8z" fill="#573733" p-id="864"></path><path d="M473.6 275.52c-50.56 0-112.96-16.96-129.28-80.32l-0.96-3.84 1.28-3.84c1.6-3.84 38.72-96.32 217.6-56l14.72 3.2-56 135.68-6.72 1.28c-11.2 2.24-25.28 3.84-40.64 3.84z m-103.04-82.24c20.48 65.28 107.2 57.92 132.48 54.4l39.04-94.4c-126.08-24-163.84 25.92-171.52 40z" fill="#573733" p-id="865"></path><path d="M523.52 316.8c-5.76 0-10.88-3.84-12.48-9.6-0.64-3.2-18.56-76.8 15.68-128.96 16.64-25.28 42.56-40.96 76.8-46.72 7.04-1.28 13.44 3.52 14.72 10.56s-3.52 13.44-10.56 14.72c-26.88 4.48-47.04 16.32-59.52 35.52-28.16 42.88-12.48 108.16-12.48 108.8 1.6 6.72-2.56 13.76-9.28 15.36-0.64 0-1.92 0.32-2.88 0.32z" fill="#573733" p-id="866"></path></svg>