<?xml version="1.0" standalone="no"?><!DOCTYPE svg PUBLIC "-//W3C//DTD SVG 1.1//EN" "http://www.w3.org/Graphics/SVG/1.1/DTD/svg11.dtd"><svg t="1538726409726" class="icon" style="" viewBox="0 0 1024 1024" version="1.1" xmlns="http://www.w3.org/2000/svg" p-id="2026" data-spm-anchor-id="a313x.7781069.0.i7" xmlns:xlink="http://www.w3.org/1999/xlink" width="64" height="64"><defs><style type="text/css"></style></defs><path d="M511.412087 0.003413a449.875834 449.875834 0 0 1 172.031427 866.301113L538.718663 1011.712041a38.229206 38.229206 0 0 1-53.930487 0l-143.359522-145.407515A449.875834 449.875834 0 0 1 512.094752 0.003413z m0 223.231256a223.91392 223.91392 0 1 1-159.743467 64.853117 223.91392 223.91392 0 0 1 159.743467-64.853117z m126.975577 98.303673a178.85807 178.85807 0 0 0-253.268489 253.268489 178.85807 178.85807 0 0 0 253.268489-253.268489z m136.532878-136.532879a372.052093 372.052093 0 1 0-400.041333 610.301966 43.690521 43.690521 0 0 1 15.018617 9.557301L511.412087 928.426985l121.514262-123.562255a38.229206 38.229206 0 0 1 13.653288-9.557301 372.052093 372.052093 0 0 0 212.308626-477.865074 380.244066 380.244066 0 0 0-83.967721-128.340905z" p-id="2027" fill="#ffffff"></path></svg>