<?xml version="1.0" standalone="no"?><!DOCTYPE svg PUBLIC "-//W3C//DTD SVG 1.1//EN" "http://www.w3.org/Graphics/SVG/1.1/DTD/svg11.dtd"><svg t="1537939418118" class="icon" style="" viewBox="0 0 1024 1024" version="1.1" xmlns="http://www.w3.org/2000/svg" p-id="1801" xmlns:xlink="http://www.w3.org/1999/xlink" width="128" height="128"><defs><style type="text/css"></style></defs><path d="M732.8 862.72H291.2c-126.72 0-230.4-103.68-230.4-230.4v-72c0-126.72 103.68-230.4 230.4-230.4h441.6c126.72 0 230.4 103.68 230.4 230.4v72c0 126.72-103.68 230.4-230.4 230.4z" fill="#F2E9B8" p-id="1802"></path><path d="M732.8 875.52H291.2c-134.08 0-243.2-109.12-243.2-243.2v-72c0-134.08 109.12-243.2 243.2-243.2h441.6c134.08 0 243.2 109.12 243.2 243.2v72c0 134.08-109.12 243.2-243.2 243.2zM291.2 342.72c-120 0-217.6 97.6-217.6 217.6v72c0 120 97.6 217.6 217.6 217.6h441.6c120 0 217.6-97.6 217.6-217.6v-72c0-120-97.6-217.6-217.6-217.6H291.2z" fill="#512625" p-id="1803"></path><path d="M681.92 329.92h-14.4c-10.56 0-19.2-8.64-19.2-19.2V158.72c0-10.56 8.64-19.2 19.2-19.2h14.4c10.56 0 19.2 8.64 19.2 19.2v152c0 10.56-8.64 19.2-19.2 19.2z" fill="#F2E9B8" p-id="1804"></path><path d="M681.92 342.72h-14.4c-17.6 0-32-14.4-32-32V158.72c0-17.6 14.4-32 32-32h14.4c17.6 0 32 14.4 32 32v152c0 17.6-14.4 32-32 32z m-14.4-190.4c-3.52 0-6.4 2.88-6.4 6.4v152c0 3.52 2.88 6.4 6.4 6.4h14.4c3.52 0 6.4-2.88 6.4-6.4V158.72c0-3.52-2.88-6.4-6.4-6.4h-14.4zM464.96 600.96h-230.4c-7.04 0-12.8-5.76-12.8-12.8s5.76-12.8 12.8-12.8h230.4c7.04 0 12.8 5.76 12.8 12.8s-5.76 12.8-12.8 12.8z" fill="#512625" p-id="1805"></path><path d="M362.56 472.96v230.4c0 7.04-5.76 12.8-12.8 12.8s-12.8-5.76-12.8-12.8v-230.4c0-7.04 5.76-12.8 12.8-12.8s12.8 5.76 12.8 12.8z" fill="#512625" p-id="1806"></path><path d="M595.52 651.52c-35.2 0-64-28.8-64-64s28.8-64 64-64 64 28.8 64 64-28.8 64-64 64z m0-102.4c-21.12 0-38.4 17.28-38.4 38.4s17.28 38.4 38.4 38.4 38.4-17.28 38.4-38.4-17.28-38.4-38.4-38.4z" fill="#512625" p-id="1807"></path><path d="M755.52 651.52c-35.2 0-64-28.8-64-64s28.8-64 64-64 64 28.8 64 64-28.8 64-64 64z m0-102.4c-21.12 0-38.4 17.28-38.4 38.4s17.28 38.4 38.4 38.4 38.4-17.28 38.4-38.4-17.28-38.4-38.4-38.4z" fill="#512625" p-id="1808"></path></svg>