<?xml version="1.0" standalone="no"?><!DOCTYPE svg PUBLIC "-//W3C//DTD SVG 1.1//EN" "http://www.w3.org/Graphics/SVG/1.1/DTD/svg11.dtd"><svg t="1540084668774" class="icon" style="" viewBox="0 0 1024 1024" version="1.1" xmlns="http://www.w3.org/2000/svg" p-id="1797" xmlns:xlink="http://www.w3.org/1999/xlink" width="128" height="128"><defs><style type="text/css"></style></defs><path d="M946.2 684.2c-0.4-0.7-0.9-1.4-1.3-2.2-0.5-0.9-1-1.7-1.6-2.6-0.3-0.5-0.7-1-1-1.5-0.7-1.1-1.4-2.1-2.1-3.2l-0.9-1.2c-1.6-2.2-3.3-4.4-5.1-6.5-0.1-0.2-0.3-0.3-0.4-0.5-1.1-1.3-2.2-2.5-3.4-3.7-0.1-0.2-0.3-0.3-0.4-0.5-3.3-3.4-6.8-6.6-10.5-9.6 10.9-38.1 16.5-77.6 16.5-117.3 0-197-134.3-362.6-316.4-410.3-0.4-0.9-0.9-1.8-1.3-2.7l-0.6-1.2c-0.5-0.9-0.9-1.7-1.4-2.6-0.1-0.3-0.3-0.5-0.4-0.8-1-1.7-2-3.3-3-4.9-0.2-0.3-0.4-0.6-0.6-1-0.5-0.8-1.1-1.6-1.6-2.4-0.2-0.4-0.5-0.8-0.8-1.2-1.8-2.5-3.7-4.9-5.7-7.2-0.4-0.4-0.7-0.8-1.1-1.2-0.6-0.7-1.2-1.3-1.7-2l-1.2-1.3c-1-1-2-2.1-3-3-0.5-0.5-1-0.9-1.4-1.4-0.6-0.5-1.2-1.1-1.8-1.6l-1.5-1.3-1.8-1.5c-0.7-0.6-1.4-1.1-2.1-1.7-0.8-0.6-1.6-1.2-2.5-1.9l-2.1-1.5c-0.6-0.4-1.2-0.8-1.7-1.2-0.7-0.5-1.5-1-2.2-1.4-0.5-0.3-1.1-0.7-1.6-1l-3.6-2.1c-0.5-0.3-1-0.5-1.5-0.8-0.9-0.4-1.7-0.9-2.6-1.3-0.5-0.3-1.1-0.5-1.6-0.8-1-0.5-2.1-1-3.2-1.4l-1-0.5c-1.3-0.6-2.7-1.1-4-1.6l-1.5-0.5c-1-0.4-2.1-0.7-3.1-1.1-0.5-0.2-0.9-0.3-1.3-0.5-1.5-0.4-2.9-0.8-4.4-1.2-0.3-0.1-0.6-0.1-0.9-0.2l-5.1-1.2c-1.2-0.3-2.5-0.5-3.7-0.7-0.3-0.1-0.6-0.1-1-0.2-1.6-0.2-3.1-0.4-4.7-0.6-0.4-0.1-0.8-0.1-1.2-0.1-1.3-0.1-2.5-0.2-3.7-0.3-0.5 0-0.9-0.1-1.4-0.1-3.2-0.2-6.5-0.2-9.7 0-1.9 0.1-3.7 0.2-5.6 0.4h-0.5c-1.6 0.2-3.1 0.4-4.7 0.6l-1.2 0.2c-1.3 0.2-2.6 0.4-3.9 0.7-1.8 0.3-3.6 0.7-5.3 1.2l-1.2 0.3c-1.2 0.3-2.3 0.6-3.5 1l-1.1 0.3c-1.4 0.4-2.8 0.9-4.2 1.4-0.4 0.1-0.8 0.3-1.2 0.4-1.1 0.4-2.1 0.8-3.2 1.3-0.4 0.2-0.9 0.3-1.3 0.5l-3.9 1.8-1.2 0.6c-1 0.5-1.9 1-2.8 1.5-0.5 0.2-0.9 0.5-1.4 0.8-1.2 0.7-2.4 1.3-3.6 2.1-0.4 0.2-0.8 0.5-1.2 0.7-0.9 0.5-1.7 1.1-2.6 1.6l-1.5 1c-0.9 0.6-1.8 1.2-2.7 1.9-0.6 0.4-1.2 0.9-1.7 1.3-0.8 0.6-1.6 1.2-2.3 1.8l-1.5 1.2c-0.7 0.6-1.4 1.2-2 1.8-0.7 0.6-1.3 1.2-2 1.8-0.7 0.6-1.4 1.3-2.1 2l-1.5 1.5c-1.2 1.2-2.4 2.5-3.5 3.8-0.7 0.7-1.3 1.5-1.9 2.2-0.5 0.6-1 1.2-1.4 1.7-0.4 0.6-0.9 1.1-1.3 1.7-0.5 0.6-0.9 1.2-1.4 1.8l-2.1 3c-0.5 0.6-0.9 1.3-1.3 1.9-0.4 0.6-0.7 1.2-1.1 1.7-0.4 0.7-0.8 1.3-1.2 2-0.6 1-1.2 2.1-1.8 3.2-195.4 37.9-343 209.8-343 416.3 0 39.7 5.5 79.2 16.5 117.3-2.3 1.8-4.5 3.7-6.6 5.7l-0.1 0.1c-1.3 1.2-2.6 2.5-3.8 3.8l-0.5 0.5c-1.2 1.2-2.3 2.4-3.4 3.7-0.2 0.2-0.3 0.3-0.4 0.5-1.8 2.1-3.5 4.3-5.1 6.5-1 1.4-2 2.9-3 4.3-0.3 0.5-0.7 1-1 1.5-0.5 0.9-1.1 1.7-1.6 2.6-0.4 0.7-0.8 1.5-1.3 2.2-0.3 0.6-0.7 1.2-1 1.8-0.6 1-1.1 2.1-1.6 3.1-0.3 0.5-0.5 1.1-0.8 1.6-0.5 1-0.9 1.9-1.3 2.9-0.2 0.6-0.5 1.2-0.7 1.7l-1.2 3c-0.2 0.4-0.3 0.9-0.5 1.3-0.4 1.3-0.9 2.6-1.3 3.9-0.1 0.4-0.3 0.8-0.4 1.3-0.4 1.3-0.8 2.7-1.2 4-0.1 0.4-0.2 0.7-0.3 1.1-0.3 1.4-0.7 2.9-1 4.3 0 0.2-0.1 0.3-0.1 0.5-0.3 1.7-0.6 3.4-0.9 5.2-0.2 1.5-0.4 3-0.6 4.6-0.1 0.3-0.1 0.6-0.1 0.9-0.1 1.5-0.3 3.1-0.3 4.6-0.1 1.9-0.2 3.8-0.2 5.7 0 58.6 47.5 106 106 106 1.8 0 3.6 0 5.4-0.2 0.7 0 1.4-0.1 2.2-0.1 1.1-0.1 2.1-0.1 3.1-0.2 0.9-0.1 1.9-0.2 2.8-0.4l2.4-0.3c1.1-0.2 2.1-0.4 3.2-0.5 0.7-0.1 1.3-0.2 1.9-0.4 1.2-0.2 2.3-0.5 3.4-0.8 0.5-0.1 1.1-0.2 1.6-0.4 1.2-0.3 2.3-0.6 3.5-1 0.4-0.1 0.9-0.2 1.4-0.4 1.2-0.3 2.4-0.8 3.6-1.2 0.4-0.1 0.8-0.3 1.2-0.4 1.2-0.4 2.4-0.9 3.6-1.4 0.3-0.1 0.6-0.2 0.9-0.4 76.9 77.7 183.5 125.7 301.4 125.7 117.9 0 224.5-48.1 301.4-125.7 0.3 0.1 0.6 0.2 0.9 0.4 1.2 0.5 2.4 0.9 3.6 1.4 0.4 0.1 0.8 0.3 1.2 0.4 1.2 0.4 2.4 0.8 3.6 1.1 0.5 0.2 0.9 0.3 1.4 0.4 1.2 0.3 2.3 0.7 3.5 1 0.6 0.1 1.1 0.3 1.7 0.4 1.1 0.3 2.2 0.5 3.4 0.8 0.6 0.1 1.3 0.2 2 0.3 1.1 0.2 2.1 0.4 3.2 0.5l2.4 0.3c0.9 0.1 1.8 0.3 2.8 0.3 1 0.1 2.1 0.2 3.1 0.3 0.7 0 1.5 0.1 2.2 0.1 1.8 0.1 3.6 0.2 5.4 0.2 58.6 0 106-47.5 106-106l-13.8-50.7z m-744.6-49.8c-10.2-3.1-20.7-4.7-31.4-4.7-5.8 0-11.4 0.5-17 1.4-8.3-31.2-12.5-63.3-12.5-95.6 0-172.5 117.6-317.4 277-359.1 1.2 21.5 9 42.1 22.2 59l-238.3 399z m310.3 272.1c-100.5 0-191.8-40-258.6-105 7.3-9.2 13-19.5 16.9-30.5h483.3c3.9 11 9.6 21.3 16.9 30.5-66.7 65-158 105-258.5 105z m236.3-182.6H275.6c-2.8-25.2-14.6-48.6-33.2-65.9L477 265.5c14.5 7.1 30.5 10.8 46.7 10.8 15.6 0 30.3-3.4 43.6-9.4l224.2 382.8c-23.6 17.1-40 43.7-43.3 74.2z m122.3-92.8c-11.9-2-24-1.8-35.8 0.3l-230-392.8c13.3-15.7 21.7-35 24.2-55.4C776.5 232.2 883 371.4 883 535.5c0 32.2-4.2 64.4-12.5 95.6z" p-id="1798" fill="#ffffff"></path><path d="M853.2 736m-106.1 0a106.1 106.1 0 1 0 212.2 0 106.1 106.1 0 1 0-212.2 0Z" p-id="1799" fill="#ffffff"></path></svg>