<?xml version="1.0" standalone="no"?><!DOCTYPE svg PUBLIC "-//W3C//DTD SVG 1.1//EN" "http://www.w3.org/Graphics/SVG/1.1/DTD/svg11.dtd"><svg t="1538725232333" class="icon" style="" viewBox="0 0 1024 1024" version="1.1" xmlns="http://www.w3.org/2000/svg" p-id="1152" xmlns:xlink="http://www.w3.org/1999/xlink" width="64" height="64"><defs><style type="text/css"></style></defs><path d="M464.96 323.84c0 43.2 14.08 139.2 14.08 139.2s-133.76 31.04-184.64 31.04c-94.08 0-170.24-76.16-170.24-170.24S200.32 153.6 294.72 153.6s170.24 76.16 170.24 170.24z" fill="#EAC7E3" p-id="1153"></path><path d="M294.72 507.2c-101.12 0-183.04-82.24-183.04-183.04S193.6 140.8 294.72 140.8s183.04 82.24 183.04 183.04c0 41.92 13.76 136.32 14.08 137.28l1.6 11.52-11.52 2.56c-5.44 1.6-135.68 32-187.2 32z m0-340.8c-87.04 0-157.44 70.72-157.44 157.44s70.72 157.44 157.44 157.44c40.32 0 136.96-20.8 170.24-28.16-3.84-27.2-12.48-94.4-12.48-129.28-0.32-86.72-71.04-157.44-157.76-157.44zM735.68 507.2c-51.84 0-181.76-30.08-187.52-31.36l-11.52-2.56 1.6-11.52c0-0.96 14.08-95.68 14.08-137.28 0-101.12 82.24-183.04 183.04-183.04S918.4 223.68 918.4 324.48s-81.92 182.72-182.72 182.72z m-170.24-53.76c33.28 7.36 129.92 28.16 170.24 28.16 87.04 0 157.44-70.72 157.44-157.44S822.4 166.4 735.68 166.4s-157.44 70.72-157.44 157.44c-0.32 35.2-8.96 102.4-12.8 129.6z" fill="#573733" p-id="1154"></path><path d="M464.96 736c0-43.2 14.08-139.2 14.08-139.2s-133.76-31.04-184.64-31.04c-94.08 0-170.24 76.16-170.24 170.24s76.16 170.24 170.24 170.24 170.56-76.16 170.56-170.24z" fill="#EAC7E3" p-id="1155"></path><path d="M294.72 919.04c-101.12 0-183.04-82.24-183.04-183.04s82.24-183.04 183.04-183.04c51.84 0 182.08 30.08 187.52 31.36l11.52 2.56-1.6 11.52c0 0.96-14.08 95.68-14.08 137.28-0.32 101.12-82.56 183.36-183.36 183.36z m0-340.8c-87.04 0-157.44 70.72-157.44 157.44s70.72 157.44 157.44 157.44 157.44-70.72 157.44-157.44c0-35.2 8.96-102.08 12.48-129.28-32.96-7.36-129.92-28.16-169.92-28.16z" fill="#573733" p-id="1156"></path><path d="M565.12 736c0-43.2-14.08-139.2-14.08-139.2s133.76-31.04 184.64-31.04c94.08 0 170.24 76.16 170.24 170.24s-76.16 170.24-170.24 170.24-170.56-76.16-170.56-170.24z" fill="#EAC7E3" p-id="1157"></path><path d="M735.68 919.04c-101.12 0-183.04-82.24-183.04-183.04 0-41.92-13.76-136.32-14.08-137.28l-1.6-11.52 11.52-2.56c5.44-1.28 135.68-31.36 187.52-31.36 101.12 0 183.04 82.24 183.04 183.04s-82.56 182.72-183.36 182.72z m-170.24-312.64c3.84 27.2 12.48 94.4 12.48 129.28 0 87.04 70.72 157.44 157.44 157.44S892.8 822.4 892.8 735.68s-70.72-157.44-157.44-157.44c-40 0-136.64 20.8-169.92 28.16z" fill="#573733" p-id="1158"></path></svg>