<?xml version="1.0" standalone="no"?><!DOCTYPE svg PUBLIC "-//W3C//DTD SVG 1.1//EN" "http://www.w3.org/Graphics/SVG/1.1/DTD/svg11.dtd"><svg t="1545808944736" class="icon" style="" viewBox="0 0 1024 1024" version="1.1" xmlns="http://www.w3.org/2000/svg" p-id="892" xmlns:xlink="http://www.w3.org/1999/xlink" width="200" height="200"><defs><style type="text/css"></style></defs><path d="M815.04 948.8h-273.28c-8 0-14.4-6.4-14.4-14.4s6.4-14.4 14.4-14.4h273.28c8 0 14.4 6.4 14.4 14.4s-6.4 14.4-14.4 14.4z" fill="#573733" p-id="893"></path><path d="M467.2 524.8m-384 0a384 384 0 1 0 768 0 384 384 0 1 0-768 0Z" fill="#BDBAF7" p-id="894"></path><path d="M500.8 948.8c-236.48 0-428.8-192.32-428.8-428.8s192.32-428.8 428.8-428.8 428.8 192.32 428.8 428.8-192.32 428.8-428.8 428.8z m0-832c-222.4 0-403.2 180.8-403.2 403.2s180.8 403.2 403.2 403.2 403.2-180.8 403.2-403.2-180.8-403.2-403.2-403.2z" fill="#573733" p-id="895"></path><path d="M483.2 406.4c-51.2 0-92.8-41.6-92.8-92.8s41.6-92.8 92.8-92.8 92.8 41.6 92.8 92.8-41.6 92.8-92.8 92.8z m0-160c-37.12 0-67.2 30.08-67.2 67.2s30.08 67.2 67.2 67.2 67.2-30.08 67.2-67.2-30.08-67.2-67.2-67.2zM694.4 617.6c-51.2 0-92.8-41.6-92.8-92.8s41.6-92.8 92.8-92.8 92.8 41.6 92.8 92.8-41.6 92.8-92.8 92.8z m0-160c-37.12 0-67.2 30.08-67.2 67.2s30.08 67.2 67.2 67.2 67.2-30.08 67.2-67.2-30.08-67.2-67.2-67.2zM483.2 838.4c-51.2 0-92.8-41.6-92.8-92.8s41.6-92.8 92.8-92.8 92.8 41.6 92.8 92.8-41.6 92.8-92.8 92.8z m0-160c-37.12 0-67.2 30.08-67.2 67.2s30.08 67.2 67.2 67.2 67.2-30.08 67.2-67.2-30.08-67.2-67.2-67.2zM259.2 617.6c-51.2 0-92.8-41.6-92.8-92.8s41.6-92.8 92.8-92.8 92.8 41.6 92.8 92.8-41.6 92.8-92.8 92.8z m0-160c-37.12 0-67.2 30.08-67.2 67.2s30.08 67.2 67.2 67.2 67.2-30.08 67.2-67.2-30.08-67.2-67.2-67.2z" fill="#573733" p-id="896"></path></svg>