<?xml version="1.0" standalone="no"?><!DOCTYPE svg PUBLIC "-//W3C//DTD SVG 1.1//EN" "http://www.w3.org/Graphics/SVG/1.1/DTD/svg11.dtd"><svg t="1537938768294" class="icon" style="" viewBox="0 0 1024 1024" version="1.1" xmlns="http://www.w3.org/2000/svg" p-id="1169" xmlns:xlink="http://www.w3.org/1999/xlink" width="128" height="128"><defs><style type="text/css"></style></defs><path d="M398.4 462.4m-318.4 0a318.4 318.4 0 1 0 636.8 0 318.4 318.4 0 1 0-636.8 0Z" fill="#FF96BE" p-id="1170"></path><path d="M425.6 806.4c-195.84 0-355.2-159.36-355.2-355.2S229.76 96 425.6 96s355.2 159.36 355.2 355.2-159.36 355.2-355.2 355.2z m0-684.8C243.84 121.6 96 269.44 96 451.2s147.84 329.6 329.6 329.6 329.6-147.84 329.6-329.6S607.36 121.6 425.6 121.6z" fill="#573733" p-id="1171"></path><path d="M801.6 893.12l-152.96-138.56c-11.84-10.56-12.8-28.8-1.92-40.64 10.56-11.84 28.8-12.8 40.64-1.92l152.96 138.56c11.84 10.56 12.8 28.8 1.92 40.64-10.88 11.52-29.12 12.48-40.64 1.92z" fill="#F2F2F2" p-id="1172"></path><path d="M820.8 913.28c-9.92 0-19.84-3.52-27.84-10.88L640 764.16c-8.32-7.36-13.12-17.6-13.44-28.8-0.64-11.2 3.2-21.76 10.56-30.08 15.36-16.96 41.92-18.24 58.88-2.88l152.96 138.56c8.32 7.36 13.12 17.6 13.44 28.8 0.64 11.2-3.2 21.76-10.56 30.08-8.32 8.96-19.84 13.44-31.04 13.44z m-10.88-29.76c6.4 6.08 16.64 5.44 22.72-0.96 6.08-6.4 5.44-16.64-0.96-22.72l-152.96-138.56c-6.4-6.08-16.64-5.44-22.72 0.96-6.08 6.4-5.44 16.64 0.96 22.72l152.96 138.56zM235.84 304.96c-3.52 0-6.72-1.28-9.28-4.16-4.8-5.12-4.48-13.44 0.64-18.24C276.8 236.48 341.76 211.2 409.6 211.2c29.12 0 57.92 4.8 85.44 13.76 6.72 2.24 10.24 9.6 8 16.32-2.24 6.72-9.6 10.24-16.32 8-24.96-8.32-50.88-12.48-77.12-12.48-61.44 0-120 23.04-165.12 64.64-2.56 2.24-5.44 3.52-8.64 3.52z" fill="#573733" p-id="1173"></path><path d="M201.6 329.6m-19.2 0a19.2 19.2 0 1 0 38.4 0 19.2 19.2 0 1 0-38.4 0Z" fill="#573733" p-id="1174"></path></svg>