<?xml version="1.0" standalone="no"?><!DOCTYPE svg PUBLIC "-//W3C//DTD SVG 1.1//EN" "http://www.w3.org/Graphics/SVG/1.1/DTD/svg11.dtd"><svg t="1537939186509" class="icon" style="" viewBox="0 0 1024 1024" version="1.1" xmlns="http://www.w3.org/2000/svg" p-id="1676" xmlns:xlink="http://www.w3.org/1999/xlink" width="128" height="128"><defs><style type="text/css"></style></defs><path d="M480 595.2m-307.2 0a307.2 307.2 0 1 0 614.4 0 307.2 307.2 0 1 0-614.4 0Z" fill="#FFB3B3" p-id="1677"></path><path d="M507.2 915.2c-188.8 0-342.4-149.44-342.4-332.8s153.6-332.8 342.4-332.8 342.4 149.44 342.4 332.8-153.6 332.8-342.4 332.8z m0-640c-174.72 0-316.8 137.92-316.8 307.2s142.08 307.2 316.8 307.2 316.8-137.92 316.8-307.2-142.08-307.2-316.8-307.2z" fill="#573733" p-id="1678"></path><path d="M719.68 96.64s167.68 54.4 200.96 215.68L889.6 377.6l-280.32-215.36c0.32 0 81.28-63.04 110.4-65.6zM293.44 99.84s-167.68 54.4-200.96 215.68l30.72 64.96 280.32-215.36c0 0.32-80.96-62.72-110.08-65.28z" fill="#FFB3B3" p-id="1679"></path><path d="M892.16 395.52l-300.8-231.04 8-10.24c36.16-46.08 90.56-72.64 149.12-72.64 104.64 0 189.44 85.12 189.44 189.44 0 41.6-13.12 80.96-38.08 113.92l-7.68 10.56z m-264-235.2l258.88 199.04c16.96-26.24 25.6-56.32 25.6-88 0-90.24-73.6-163.84-163.84-163.84-46.4-0.32-89.92 18.88-120.64 52.8zM123.52 395.52l-7.68-10.24c-25.28-33.28-38.4-72.64-38.4-114.24 0-104.64 85.12-189.44 189.44-189.44 58.56 0 112.96 26.56 149.12 72.64l8 10.24-300.48 231.04z m143.36-288.32c-90.24 0-163.84 73.6-163.84 163.84 0 31.68 8.96 61.76 25.6 88L387.52 160c-31.04-33.6-74.24-52.8-120.64-52.8zM499.2 593.6c-7.04 0-12.8-5.76-12.8-12.8v-198.4c0-7.04 5.76-12.8 12.8-12.8s12.8 5.76 12.8 12.8v198.4c0 7.04-5.76 12.8-12.8 12.8z" fill="#573733" p-id="1680"></path><path d="M511.68 582.4c0 7.04-5.76 12.8-12.8 12.8h-198.4c-7.04 0-12.8-5.76-12.8-12.8s5.76-12.8 12.8-12.8h198.4c7.04 0 12.8 5.76 12.8 12.8z" fill="#573733" p-id="1681"></path></svg>